<?xml version="1.0" encoding="UTF-8" standalone="no"?>
<svg width="1200" height="800" viewBox="0 0 1200 800" xmlns="http://www.w3.org/2000/svg">
  <!-- Dark background with subtle gradient -->
  <rect width="1200" height="800" fill="#0A0A0A"/>
  <rect width="1200" height="800" fill="url(#darkGradient)"/>
  
  <!-- Cityscape silhouette -->
  <path d="M0,600 L50,610 L100,590 L150,600 L200,580 L250,600 L300,590 L350,610 L400,580 L450,590 L500,600 L550,580 L600,590 L650,580 L700,610 L750,590 L800,600 L850,580 L900,590 L950,580 L1000,600 L1050,590 L1100,580 L1150,600 L1200,590 L1200,800 L0,800 Z" fill="#030307"/>

  <!-- Buildings -->
  <rect x="100" y="400" width="80" height="200" fill="#151523"/>
  <rect x="200" y="350" width="60" height="250" fill="#11111d"/>
  <rect x="280" y="420" width="40" height="180" fill="#14142a"/>
  <rect x="340" y="380" width="70" height="220" fill="#18182b"/>
  <rect x="450" y="320" width="100" height="280" fill="#0e0e19"/>
  <rect x="580" y="370" width="60" height="230" fill="#13131f"/>
  <rect x="660" y="400" width="70" height="200" fill="#101022"/>
  <rect x="760" y="360" width="50" height="240" fill="#16162a"/>
  <rect x="850" y="300" width="90" height="300" fill="#0d0d16"/>
  <rect x="960" y="380" width="60" height="220" fill="#121226"/>
  <rect x="1050" y="420" width="80" height="180" fill="#17172b"/>

  <!-- Windows -->
  <g fill="#f0c465" opacity="0.4">
    <!-- Building 1 -->
    <rect x="110" y="420" width="10" height="15"/>
    <rect x="130" y="420" width="10" height="15"/>
    <rect x="150" y="420" width="10" height="15"/>
    <rect x="110" y="450" width="10" height="15"/>
    <rect x="130" y="450" width="10" height="15"/>
    <rect x="150" y="450" width="10" height="15"/>
    <rect x="110" y="480" width="10" height="15"/>
    <rect x="130" y="480" width="10" height="15"/>
    <rect x="150" y="480" width="10" height="15"/>
    <rect x="110" y="510" width="10" height="15"/>
    <rect x="130" y="510" width="10" height="15"/>
    <rect x="150" y="510" width="10" height="15"/>
    <rect x="110" y="540" width="10" height="15"/>
    <rect x="130" y="540" width="10" height="15"/>
    <rect x="150" y="540" width="10" height="15"/>
    
    <!-- Building 2 -->
    <rect x="210" y="370" width="10" height="15"/>
    <rect x="230" y="370" width="10" height="15"/>
    <rect x="210" y="400" width="10" height="15"/>
    <rect x="230" y="400" width="10" height="15"/>
    <rect x="210" y="430" width="10" height="15"/>
    <rect x="230" y="430" width="10" height="15"/>
    <rect x="210" y="460" width="10" height="15"/>
    <rect x="230" y="460" width="10" height="15"/>
    <rect x="210" y="490" width="10" height="15"/>
    <rect x="230" y="490" width="10" height="15"/>
    <rect x="210" y="520" width="10" height="15"/>
    <rect x="230" y="520" width="10" height="15"/>
    <rect x="210" y="550" width="10" height="15"/>
    <rect x="230" y="550" width="10" height="15"/>
    
    <!-- And so on for a few more buildings -->
    <rect x="460" y="340" width="10" height="15"/>
    <rect x="480" y="340" width="10" height="15"/>
    <rect x="500" y="340" width="10" height="15"/>
    <rect x="520" y="340" width="10" height="15"/>
    <rect x="460" y="370" width="10" height="15"/>
    <rect x="480" y="370" width="10" height="15"/>
    <rect x="500" y="370" width="10" height="15"/>
    <rect x="520" y="370" width="10" height="15"/>
    <rect x="460" y="400" width="10" height="15"/>
    <rect x="480" y="400" width="10" height="15"/>
    <rect x="500" y="400" width="10" height="15"/>
    <rect x="520" y="400" width="10" height="15"/>
    <rect x="460" y="430" width="10" height="15"/>
    <rect x="480" y="430" width="10" height="15"/>
    <rect x="500" y="430" width="10" height="15"/>
    <rect x="520" y="430" width="10" height="15"/>
    <rect x="460" y="460" width="10" height="15"/>
    <rect x="480" y="460" width="10" height="15"/>
    <rect x="500" y="460" width="10" height="15"/>
    <rect x="520" y="460" width="10" height="15"/>
    <rect x="460" y="490" width="10" height="15"/>
    <rect x="480" y="490" width="10" height="15"/>
    <rect x="500" y="490" width="10" height="15"/>
    <rect x="520" y="490" width="10" height="15"/>
    <rect x="460" y="520" width="10" height="15"/>
    <rect x="480" y="520" width="10" height="15"/>
    <rect x="500" y="520" width="10" height="15"/>
    <rect x="520" y="520" width="10" height="15"/>
    <rect x="460" y="550" width="10" height="15"/>
    <rect x="480" y="550" width="10" height="15"/>
    <rect x="500" y="550" width="10" height="15"/>
    <rect x="520" y="550" width="10" height="15"/>
    
    <rect x="860" y="320" width="10" height="15"/>
    <rect x="880" y="320" width="10" height="15"/>
    <rect x="900" y="320" width="10" height="15"/>
    <rect x="860" y="350" width="10" height="15"/>
    <rect x="880" y="350" width="10" height="15"/>
    <rect x="900" y="350" width="10" height="15"/>
    <rect x="860" y="380" width="10" height="15"/>
    <rect x="880" y="380" width="10" height="15"/>
    <rect x="900" y="380" width="10" height="15"/>
    <rect x="860" y="410" width="10" height="15"/>
    <rect x="880" y="410" width="10" height="15"/>
    <rect x="900" y="410" width="10" height="15"/>
    <rect x="860" y="440" width="10" height="15"/>
    <rect x="880" y="440" width="10" height="15"/>
    <rect x="900" y="440" width="10" height="15"/>
    <rect x="860" y="470" width="10" height="15"/>
    <rect x="880" y="470" width="10" height="15"/>
    <rect x="900" y="470" width="10" height="15"/>
    <rect x="860" y="500" width="10" height="15"/>
    <rect x="880" y="500" width="10" height="15"/>
    <rect x="900" y="500" width="10" height="15"/>
    <rect x="860" y="530" width="10" height="15"/>
    <rect x="880" y="530" width="10" height="15"/>
    <rect x="900" y="530" width="10" height="15"/>
    <rect x="860" y="560" width="10" height="15"/>
    <rect x="880" y="560" width="10" height="15"/>
    <rect x="900" y="560" width="10" height="15"/>
  </g>

  <!-- Mafia hat silhouette on the side -->
  <path d="M1000,200 Q1050,180 1100,200 L1120,210 L1150,160 L1130,155 L1150,140 Q1170,160 1180,190 L1140,250 Q1120,230 1080,230 Q1040,230 1020,250 L980,190 Z" fill="#111111"/>
  
  <!-- Gun silhouette -->
  <path d="M200,200 L300,200 L320,220 L500,220 L500,240 L320,240 L300,260 L200,260 Z" fill="#111111"/>
  <rect x="190" y="220" width="20" height="20" fill="#111111"/>
  <rect x="170" y="230" width="20" height="30" fill="#111111"/>

  <!-- Cards -->
  <rect x="700" y="210" width="50" height="70" rx="5" fill="#111111" transform="rotate(-10, 725, 245)"/>
  <rect x="720" y="200" width="50" height="70" rx="5" fill="#151515" transform="rotate(5, 745, 235)"/>
  
  <!-- Money bag -->
  <path d="M550,180 Q580,160 610,180 Q630,200 630,230 Q630,260 610,280 Q580,300 550,280 Q530,260 530,230 Q530,200 550,180 Z" fill="#111111"/>
  <path d="M570,190 L590,190 M570,200 L590,200 M570,210 L590,210" stroke="#222222" stroke-width="3"/>
  
  <!-- Gradient definitions -->
  <defs>
    <linearGradient id="darkGradient" x1="0%" y1="0%" x2="100%" y2="100%">
      <stop offset="0%" stop-color="#14142a" stop-opacity="0.8"/>
      <stop offset="100%" stop-color="#000000" stop-opacity="0.9"/>
    </linearGradient>
  </defs>
  
  <!-- Vignette effect -->
  <radialGradient id="vignette" cx="50%" cy="50%" r="70%" fx="50%" fy="50%">
    <stop offset="0%" stop-color="transparent" stop-opacity="0"/>
    <stop offset="100%" stop-color="#000000" stop-opacity="0.7"/>
  </radialGradient>
  <rect width="1200" height="800" fill="url(#vignette)"/>
  
  <!-- Subtle gold dust particles -->
  <g fill="#f0c465" opacity="0.2">
    <circle cx="100" cy="100" r="1"/>
    <circle cx="200" cy="150" r="1"/>
    <circle cx="300" cy="120" r="1"/>
    <circle cx="400" cy="200" r="1"/>
    <circle cx="500" cy="130" r="1"/>
    <circle cx="600" cy="180" r="1"/>
    <circle cx="700" cy="120" r="1"/>
    <circle cx="800" cy="170" r="1"/>
    <circle cx="900" cy="140" r="1"/>
    <circle cx="1000" cy="190" r="1"/>
    <circle cx="1100" cy="130" r="1"/>
    <circle cx="150" cy="250" r="1"/>
    <circle cx="250" cy="220" r="1"/>
    <circle cx="350" cy="270" r="1"/>
    <circle cx="450" cy="230" r="1"/>
    <circle cx="550" cy="280" r="1"/>
    <circle cx="650" cy="240" r="1"/>
    <circle cx="750" cy="290" r="1"/>
    <circle cx="850" cy="250" r="1"/>
    <circle cx="950" cy="300" r="1"/>
    <circle cx="1050" cy="260" r="1"/>
    <circle cx="120" cy="330" r="1"/>
    <circle cx="220" cy="310" r="1"/>
    <circle cx="320" cy="340" r="1"/>
    <circle cx="420" cy="320" r="1"/>
    <circle cx="520" cy="350" r="1"/>
    <circle cx="620" cy="330" r="1"/>
    <circle cx="720" cy="360" r="1"/>
    <circle cx="820" cy="340" r="1"/>
    <circle cx="920" cy="370" r="1"/>
    <circle cx="1020" cy="350" r="1"/>
    <circle cx="1120" cy="380" r="1"/>
  </g>
</svg>