<?xml version="1.0" encoding="UTF-8" standalone="no"?>
<svg width="400" height="400" viewBox="0 0 400 400" xmlns="http://www.w3.org/2000/svg">
  <defs>
    <linearGradient id="goldGradient" x1="0%" y1="0%" x2="100%" y2="100%">
      <stop offset="0%" stop-color="#ffd700" stop-opacity="0.8"/>
      <stop offset="50%" stop-color="#d4af37" stop-opacity="0.8"/>
      <stop offset="100%" stop-color="#b8860b" stop-opacity="0.8"/>
    </linearGradient>
  </defs>

  <!-- Fedora Hat -->
  <path d="M200,50 
           C260,50 320,80 340,120 
           L360,140 
           C360,140 380,130 385,150 
           C390,170 380,190 370,195
           L340,220 
           C300,250 250,250 200,250 
           C150,250 100,250 60,220 
           L30,195 
           C20,190 10,170 15,150 
           C20,130 40,140 40,140 
           L60,120 
           C80,80 140,50 200,50 Z" 
        fill="#111111"/>
  
  <!-- Hat Ribbon -->
  <path d="M340,140 
           C280,170 120,170 60,140 
           L65,160 
           C125,190 275,190 335,160 Z" 
        fill="#222222"/>
  
  <!-- Hat Brim -->
  <ellipse cx="200" cy="140" rx="170" ry="40" fill="#111111"/>
  
  <!-- Tommy Gun -->
  <path d="M100,300 
           L150,300 
           L160,310 
           L300,310 
           L300,320 
           L160,320 
           L150,330 
           L100,330 Z" 
        fill="#222222"/>
  <rect x="95" y="310" width="15" height="10" fill="#222222"/>
  <rect x="80" y="315" width="15" height="20" fill="#222222"/>
  
  <!-- Fancy Dollar Sign Overlay -->
  <path d="M200,150 
           C210,150 220,155 220,165 
           L220,175 
           C220,185 210,190 200,190 
           C190,190 180,185 180,175 
           L180,165 
           C180,155 190,150 200,150 Z
           
           M190,140 L210,140 L210,150 L190,150 Z
           M190,190 L210,190 L210,200 L190,200 Z
           
           M185,155 L195,155 L195,185 L185,185 Z" 
        fill="url(#goldGradient)"/>
</svg>