<?xml version="1.0" encoding="UTF-8"?>
<svg width="300" height="300" viewBox="0 0 300 300" fill="none" xmlns="http://www.w3.org/2000/svg">
  <!-- Outer rim -->
  <circle cx="150" cy="150" r="145" fill="black" stroke="#8B6D3F" stroke-width="10"/>
  
  <!-- Inner wheel -->
  <g>
    <!-- Green 0 pocket -->
    <path d="M150 150 L150 5 A145 145 0 0 1 158.5 5.3 Z" fill="#006633" stroke="#4A3520" stroke-width="1"/>
    
    <!-- Red pockets -->
    <path d="M150 150 L158.5 5.3 A145 145 0 0 1 175.45 7.15 Z" fill="#CC0000" stroke="#4A3520" stroke-width="1"/>
    <path d="M150 150 L191.75 11.65 A145 145 0 0 1 207.15 17.05 Z" fill="#CC0000" stroke="#4A3520" stroke-width="1"/>
    <path d="M150 150 L236.25 41.65 A145 145 0 0 1 248.75 52.45 Z" fill="#CC0000" stroke="#4A3520" stroke-width="1"/>
    <path d="M150 150 L274.05 85.65 A145 145 0 0 1 280.75 100.05 Z" fill="#CC0000" stroke="#4A3520" stroke-width="1"/>
    <path d="M150 150 L294.05 142.65 A145 145 0 0 1 294.05 157.35 Z" fill="#CC0000" stroke="#4A3520" stroke-width="1"/>
    <path d="M150 150 L280.75 199.95 A145 145 0 0 1 274.05 214.35 Z" fill="#CC0000" stroke="#4A3520" stroke-width="1"/>
    <path d="M150 150 L248.75 247.55 A145 145 0 0 1 236.25 258.35 Z" fill="#CC0000" stroke="#4A3520" stroke-width="1"/>
    <path d="M150 150 L207.15 282.95 A145 145 0 0 1 191.75 288.35 Z" fill="#CC0000" stroke="#4A3520" stroke-width="1"/>
    <path d="M150 150 L158.5 294.7 A145 145 0 0 1 141.5 294.7 Z" fill="#CC0000" stroke="#4A3520" stroke-width="1"/>
    <path d="M150 150 L108.25 288.35 A145 145 0 0 1 92.85 282.95 Z" fill="#CC0000" stroke="#4A3520" stroke-width="1"/>
    <path d="M150 150 L63.75 258.35 A145 145 0 0 1 51.25 247.55 Z" fill="#CC0000" stroke="#4A3520" stroke-width="1"/>
    <path d="M150 150 L25.95 214.35 A145 145 0 0 1 19.25 199.95 Z" fill="#CC0000" stroke="#4A3520" stroke-width="1"/>
    <path d="M150 150 L5.95 157.35 A145 145 0 0 1 5.95 142.65 Z" fill="#CC0000" stroke="#4A3520" stroke-width="1"/>
    <path d="M150 150 L19.25 100.05 A145 145 0 0 1 25.95 85.65 Z" fill="#CC0000" stroke="#4A3520" stroke-width="1"/>
    <path d="M150 150 L51.25 52.45 A145 145 0 0 1 63.75 41.65 Z" fill="#CC0000" stroke="#4A3520" stroke-width="1"/>
    <path d="M150 150 L92.85 17.05 A145 145 0 0 1 108.25 11.65 Z" fill="#CC0000" stroke="#4A3520" stroke-width="1"/>
    <path d="M150 150 L141.5 5.3 A145 145 0 0 1 150 5 Z" fill="#CC0000" stroke="#4A3520" stroke-width="1"/>
    
    <!-- Black pockets -->
    <path d="M150 150 L175.45 7.15 A145 145 0 0 1 191.75 11.65 Z" fill="#000000" stroke="#4A3520" stroke-width="1"/>
    <path d="M150 150 L207.15 17.05 A145 145 0 0 1 221.5 24.9 Z" fill="#000000" stroke="#4A3520" stroke-width="1"/>
    <path d="M150 150 L248.75 52.45 A145 145 0 0 1 259.8 65.4 Z" fill="#000000" stroke="#4A3520" stroke-width="1"/>
    <path d="M150 150 L280.75 100.05 A145 145 0 0 1 285.5 115.35 Z" fill="#000000" stroke="#4A3520" stroke-width="1"/>
    <path d="M150 150 L294.05 157.35 A145 145 0 0 1 291.7 172.45 Z" fill="#000000" stroke="#4A3520" stroke-width="1"/>
    <path d="M150 150 L274.05 214.35 A145 145 0 0 1 265.15 227.45 Z" fill="#000000" stroke="#4A3520" stroke-width="1"/>
    <path d="M150 150 L236.25 258.35 A145 145 0 0 1 221.5 275.1 Z" fill="#000000" stroke="#4A3520" stroke-width="1"/>
    <path d="M150 150 L191.75 288.35 A145 145 0 0 1 175.45 292.85 Z" fill="#000000" stroke="#4A3520" stroke-width="1"/>
    <path d="M150 150 L141.5 294.7 A145 145 0 0 1 124.55 292.85 Z" fill="#000000" stroke="#4A3520" stroke-width="1"/>
    <path d="M150 150 L92.85 282.95 A145 145 0 0 1 78.5 275.1 Z" fill="#000000" stroke="#4A3520" stroke-width="1"/>
    <path d="M150 150 L51.25 247.55 A145 145 0 0 1 40.2 234.6 Z" fill="#000000" stroke="#4A3520" stroke-width="1"/>
    <path d="M150 150 L19.25 199.95 A145 145 0 0 1 14.5 184.65 Z" fill="#000000" stroke="#4A3520" stroke-width="1"/>
    <path d="M150 150 L5.95 142.65 A145 145 0 0 1 8.3 127.55 Z" fill="#000000" stroke="#4A3520" stroke-width="1"/>
    <path d="M150 150 L25.95 85.65 A145 145 0 0 1 34.85 72.55 Z" fill="#000000" stroke="#4A3520" stroke-width="1"/>
    <path d="M150 150 L63.75 41.65 A145 145 0 0 1 78.5 24.9 Z" fill="#000000" stroke="#4A3520" stroke-width="1"/>
    <path d="M150 150 L108.25 11.65 A145 145 0 0 1 124.55 7.15 Z" fill="#000000" stroke="#4A3520" stroke-width="1"/>
  </g>
  
  <!-- Numbers layer -->
  <g fill="white" font-family="Arial" font-weight="bold" font-size="10px">
    <text x="150" y="20" text-anchor="middle" transform="rotate(0, 150, 150)">0</text>
    <text x="150" y="20" text-anchor="middle" transform="rotate(10, 150, 150)">32</text>
    <text x="150" y="20" text-anchor="middle" transform="rotate(20, 150, 150)">15</text>
    <text x="150" y="20" text-anchor="middle" transform="rotate(30, 150, 150)">19</text>
    <text x="150" y="20" text-anchor="middle" transform="rotate(40, 150, 150)">4</text>
    <text x="150" y="20" text-anchor="middle" transform="rotate(50, 150, 150)">21</text>
    <text x="150" y="20" text-anchor="middle" transform="rotate(60, 150, 150)">2</text>
    <text x="150" y="20" text-anchor="middle" transform="rotate(70, 150, 150)">25</text>
    <text x="150" y="20" text-anchor="middle" transform="rotate(80, 150, 150)">17</text>
    <text x="150" y="20" text-anchor="middle" transform="rotate(90, 150, 150)">34</text>
    <text x="150" y="20" text-anchor="middle" transform="rotate(100, 150, 150)">6</text>
    <text x="150" y="20" text-anchor="middle" transform="rotate(110, 150, 150)">27</text>
    <text x="150" y="20" text-anchor="middle" transform="rotate(120, 150, 150)">13</text>
    <text x="150" y="20" text-anchor="middle" transform="rotate(130, 150, 150)">36</text>
    <text x="150" y="20" text-anchor="middle" transform="rotate(140, 150, 150)">11</text>
    <text x="150" y="20" text-anchor="middle" transform="rotate(150, 150, 150)">30</text>
    <text x="150" y="20" text-anchor="middle" transform="rotate(160, 150, 150)">8</text>
    <text x="150" y="20" text-anchor="middle" transform="rotate(170, 150, 150)">23</text>
    <text x="150" y="20" text-anchor="middle" transform="rotate(180, 150, 150)">10</text>
    <text x="150" y="20" text-anchor="middle" transform="rotate(190, 150, 150)">5</text>
    <text x="150" y="20" text-anchor="middle" transform="rotate(200, 150, 150)">24</text>
    <text x="150" y="20" text-anchor="middle" transform="rotate(210, 150, 150)">16</text>
    <text x="150" y="20" text-anchor="middle" transform="rotate(220, 150, 150)">33</text>
    <text x="150" y="20" text-anchor="middle" transform="rotate(230, 150, 150)">1</text>
    <text x="150" y="20" text-anchor="middle" transform="rotate(240, 150, 150)">20</text>
    <text x="150" y="20" text-anchor="middle" transform="rotate(250, 150, 150)">14</text>
    <text x="150" y="20" text-anchor="middle" transform="rotate(260, 150, 150)">31</text>
    <text x="150" y="20" text-anchor="middle" transform="rotate(270, 150, 150)">9</text>
    <text x="150" y="20" text-anchor="middle" transform="rotate(280, 150, 150)">22</text>
    <text x="150" y="20" text-anchor="middle" transform="rotate(290, 150, 150)">18</text>
    <text x="150" y="20" text-anchor="middle" transform="rotate(300, 150, 150)">29</text>
    <text x="150" y="20" text-anchor="middle" transform="rotate(310, 150, 150)">7</text>
    <text x="150" y="20" text-anchor="middle" transform="rotate(320, 150, 150)">28</text>
    <text x="150" y="20" text-anchor="middle" transform="rotate(330, 150, 150)">12</text>
    <text x="150" y="20" text-anchor="middle" transform="rotate(340, 150, 150)">35</text>
    <text x="150" y="20" text-anchor="middle" transform="rotate(350, 150, 150)">3</text>
  </g>
  
  <!-- Center hub -->
  <circle cx="150" cy="150" r="30" fill="#4A3520" stroke="#8B6D3F" stroke-width="2"/>
  <circle cx="150" cy="150" r="20" fill="#8B6D3F" stroke="#D4AF37" stroke-width="1"/>
  <circle cx="150" cy="150" r="10" fill="#D4AF37"/>
  
  <!-- Dividers and decoration -->
  <circle cx="150" cy="150" r="110" fill="none" stroke="#8B6D3F" stroke-width="1"/>
  <circle cx="150" cy="150" r="70" fill="none" stroke="#8B6D3F" stroke-width="1"/>
</svg>